<svg width="636" height="803" viewBox="0 0 636 803" fill="none" xmlns="http://www.w3.org/2000/svg">
<g clip-path="url(#clip0_1_4420)">
<path d="M2055.48 232.41H1912.96V127.922H2055.48V232.41ZM2055.48 346.414H1912.96V241.91H2055.48V346.414ZM1903.42 215.425L1831.96 36.8565L1760.5 215.425V13.34H1903.44V215.425H1903.42ZM1763.95 232.41L1831.95 62.498L1899.95 232.41H1763.95ZM1903.42 461.012H1797.66C1811.5 455.105 1824.22 446.589 1835.18 435.667C1857.68 413.182 1870.08 383.259 1870.08 351.477C1870.08 319.694 1857.68 289.756 1835.18 267.286C1824.22 256.333 1811.51 247.817 1797.66 241.942H1903.42V461.012ZM1760.48 242.41C1786.15 244.598 1810.01 255.583 1828.43 274.021C1849.13 294.709 1860.52 322.194 1860.52 351.477C1860.52 380.759 1849.13 408.244 1828.43 428.932C1810 447.355 1786.15 458.355 1760.48 460.543V242.41ZM1750.95 118.141H1684.66V118.109H1684.44V46.3881C1684.44 -16.5047 1710.89 -73.0223 1750.95 -97.4606V118.141ZM1679.67 0.0427383C1678.3 -6.59811 1676.64 -13.0983 1674.67 -19.4736C1672.07 -27.9426 1668.96 -36.1304 1665.32 -43.9744C1664.4 -45.9276 1663.46 -47.8808 1662.49 -49.7871C1661.11 -52.4747 1659.72 -55.0529 1658.27 -57.5998C1655.36 -62.6781 1652.23 -67.4752 1648.95 -72.0223C1647.31 -74.288 1645.61 -76.4599 1643.87 -78.5849C1636.94 -87.054 1629.33 -94.3355 1621.15 -100.367H1738.22C1730.04 -94.3355 1722.43 -87.054 1715.5 -78.5849C1713.77 -76.4599 1712.08 -74.288 1710.42 -72.0223C1707.13 -67.4909 1704 -62.6781 1701.11 -57.5998C1699.64 -55.0685 1698.23 -52.4747 1696.85 -49.7871C1691.02 -38.318 1686.33 -26.0051 1682.81 -13.0671C1681.64 -8.7701 1680.61 -4.41054 1679.69 0.0271133M1675.12 346.695H1608.41V127.625H1675.12V346.695ZM1608.4 -97.4606C1648.45 -73.0223 1674.9 -16.489 1674.9 46.3881V118.109H1608.4V-97.4606ZM1598.88 346.695H1532.17V127.625H1598.88V346.695ZM1674.72 575.297H1532.17V470.809H1674.72V575.297ZM1674.72 689.269H1532.17V584.782H1674.72V689.269ZM1522.66 76.186C1516.75 62.373 1508.23 49.6382 1497.3 38.6847C1486.34 27.7312 1473.6 19.2465 1459.8 13.34H1522.68V76.186H1522.66ZM1522.66 231.941C1496.99 229.754 1473.12 218.738 1454.68 200.331C1435.13 180.768 1424.01 155.095 1422.84 127.641H1522.66V231.957V231.941ZM1522.66 346.695H1379.67V241.942H1522.66V346.695ZM1522.66 558.327L1451.17 379.727L1379.7 558.327V356.242H1522.66V558.327ZM1522.66 803.898H1416.9C1430.72 797.992 1443.46 789.476 1454.42 778.554C1476.93 756.069 1489.3 726.146 1489.3 694.363C1489.3 662.581 1476.92 632.643 1454.42 610.157C1443.46 599.235 1430.72 590.719 1416.9 584.813H1522.66V803.898ZM1383.16 575.297L1451.17 405.385L1519.19 575.297H1383.16ZM1384.49 585.797C1386.07 586.016 1387.66 586.235 1389.24 586.532C1395.51 587.625 1401.67 589.266 1407.63 591.407C1418.05 595.157 1427.86 600.501 1436.74 607.345C1440.57 610.251 1444.21 613.439 1447.67 616.908V616.939C1468.36 637.627 1479.76 665.112 1479.76 694.363C1479.76 723.614 1468.36 751.131 1447.67 771.819C1429.22 790.257 1405.38 801.242 1379.69 803.461V585.297C1381.3 585.438 1382.89 585.61 1384.47 585.813M1379.7 127.641H1413.29C1414.46 157.642 1426.59 185.721 1447.95 207.065C1458.91 218.019 1471.65 226.504 1485.47 232.41H1379.7V127.641ZM1379.7 13.34H1413.07C1442.33 13.34 1469.83 24.7311 1490.56 45.4193C1510.12 64.9824 1521.24 90.6552 1522.41 118.109H1379.7V13.34ZM1370.18 461.043H1303.9V461.012H1303.65V389.29C1303.65 326.398 1330.1 269.88 1370.18 245.426V461.027V461.043ZM1281.73 293.131C1270.85 271.755 1256.73 254.583 1240.38 242.567H1357.41C1341.06 254.598 1326.94 271.771 1316.06 293.131C1308.27 308.428 1302.57 325.226 1298.88 342.945C1295.22 325.226 1289.51 308.428 1281.71 293.131M1294.34 689.597H1227.63V470.528H1294.34V689.597ZM1227.62 245.442C1267.69 269.88 1294.16 326.413 1294.16 389.306V461.027H1227.62V245.457V245.442ZM1218.11 119.078H1075.58V14.59H1218.11V119.078ZM1218.11 233.066H1075.58V128.578H1218.11V233.066ZM1218.11 461.012H1151.4V346.695H1075.56V242.551H1218.1V461.012H1218.11ZM1218.11 689.597H1151.4V470.528H1218.11V689.597ZM1141.87 419.073C1135.99 405.244 1127.47 392.525 1116.51 381.571C1105.55 370.618 1092.84 362.133 1078.99 356.227H1141.87V419.073ZM1141.87 574.844C1116.2 572.656 1092.34 561.64 1073.92 543.233C1054.35 523.67 1043.22 497.997 1042.04 470.543H1141.87V574.859V574.844ZM1141.87 689.91H998.942V584.813H1141.87V689.91ZM1141.46 803.883H998.942V699.395H1141.46V803.883ZM1141.46 917.886H998.942V813.398H1141.46V917.886ZM989.39 346.695V347.664H960.295C974.115 341.758 986.857 333.273 997.816 322.319C1020.3 299.834 1032.7 269.927 1032.7 238.129C1032.7 206.331 1020.3 176.408 997.816 153.939C986.857 142.985 974.115 134.469 960.295 128.594H1066.06V346.679H989.39V346.695ZM989.39 575.297H846.433V461.637H694.816V242.895H847.293V14.2932H913.581V357.18H989.39V575.297ZM989.39 786.929L917.927 608.329L846.433 786.929V584.813H989.39V786.929ZM849.92 803.883L917.927 633.971L985.919 803.883H849.92ZM846.433 1032.02V813.883C872.104 816.086 895.977 827.087 914.41 845.493C935.109 866.182 946.506 893.698 946.506 922.949C946.506 952.2 935.109 979.717 914.41 1000.41C895.977 1018.83 872.104 1029.83 846.433 1032.02ZM989.39 1032.48H883.627C897.463 1026.58 910.188 1018.09 921.148 1007.14C943.645 984.639 956.058 954.763 956.058 922.949C956.058 891.136 943.661 861.26 921.148 838.759C910.188 827.805 897.478 819.321 883.627 813.414H989.39V1032.48ZM836.912 689.613H770.625L770.406 689.597V617.876C770.406 554.984 796.858 498.482 836.912 474.012V689.613ZM748.472 521.732C737.591 500.341 723.473 483.184 707.12 471.168H824.186C807.833 483.2 793.7 500.341 782.819 521.732C775.034 536.999 769.327 553.827 765.669 571.547C762.011 553.827 756.273 536.999 748.487 521.732M761.104 918.199H694.394V699.129H761.104V918.199ZM694.347 474.012C734.432 498.482 760.885 554.984 760.885 617.876V689.597H694.347V474.028V474.012ZM685.295 347.351H542.777V242.863H685.264V242.895H685.295V347.351ZM685.295 461.355H542.777V356.852H685.295V461.355ZM684.857 689.597H618.148V575.312H542.777V470.856H684.857V689.597ZM684.857 918.199H618.148V699.129H684.857V918.199ZM608.627 647.674C602.717 633.846 594.197 621.111 583.268 610.157C572.309 599.235 559.568 590.719 545.732 584.813H608.627V647.674ZM608.627 803.414C582.956 801.226 559.083 790.242 540.651 771.803C521.077 752.256 509.977 726.567 508.773 699.129H608.627V803.414ZM465.671 803.883V699.129H499.252C500.425 729.13 512.557 757.194 533.912 778.554C544.872 789.476 557.582 797.992 571.434 803.883H465.671ZM456.149 575.969H427.477C441.313 570.062 454.023 561.546 464.983 550.624C487.495 528.139 499.893 498.216 499.893 466.434C499.893 434.651 487.495 404.713 464.983 382.243C454.023 371.29 441.313 362.774 427.477 356.867H533.24V575.297H456.165V575.953L456.149 575.969ZM390.284 357.367C415.955 359.555 439.828 370.54 458.26 388.978C478.959 409.666 490.356 437.151 490.356 466.434C490.356 495.716 478.959 523.17 458.26 543.889C439.828 562.312 415.955 573.281 390.284 575.5V357.367ZM380.763 233.098H314.475V233.066H314.225V161.345C314.225 98.4524 340.678 41.9348 380.763 17.4808V233.082V233.098ZM304.485 95.4835C301.233 84.8894 297.169 74.7484 292.307 65.1856C281.425 43.8098 267.308 26.6374 250.955 14.6214H368.021C351.668 26.653 337.535 43.8255 326.654 65.1856C318.868 80.4829 313.162 97.296 309.488 115C308.097 108.359 306.44 101.859 304.485 95.4835ZM304.954 461.652H238.229V242.582H304.954V461.652ZM238.213 17.4965C278.267 41.9348 304.72 98.468 304.72 161.361V233.082H238.213V17.512V17.4965ZM529.769 347.351H393.77L461.778 177.439L529.769 347.351ZM554.393 599.798C557.051 601.36 559.661 603.016 562.178 604.829C564.711 606.61 567.181 608.517 569.542 610.532C569.573 610.548 569.573 610.532 569.573 610.532C571.965 612.532 574.279 614.657 576.53 616.892C580.798 621.158 584.676 625.752 588.131 630.58C590.101 633.314 591.961 636.174 593.649 639.065C594.916 641.237 596.12 643.455 597.245 645.721C597.996 647.237 598.715 648.752 599.371 650.284C604.734 662.581 607.814 675.878 608.408 689.582H465.702V585.469H510.759C526.314 587.125 541.12 592.001 554.424 599.782M390.3 128.297H532.787V128.61H533.224V229.496V330.382L461.762 151.814L390.3 330.382V128.297ZM685.28 233.379H542.792V128.61H685.28V233.379ZM694.785 14.2932H761.51V233.379H694.785V14.2932ZM655.732 -223.168C669.567 -229.074 682.309 -237.559 693.268 -248.513C715.75 -270.998 728.148 -300.889 728.148 -332.703C728.148 -364.517 715.75 -394.393 693.268 -416.893C682.309 -427.847 669.567 -436.332 655.732 -442.238H761.51V-223.168H655.732ZM618.57 -441.769C644.241 -439.582 668.098 -428.566 686.546 -410.159C707.245 -389.471 718.642 -361.954 718.642 -332.703C718.642 -303.452 707.245 -275.935 686.546 -255.247C668.098 -236.825 644.241 -225.824 618.57 -223.637V-441.769ZM758.04 -451.77H622.041L690.032 -621.682L758.04 -451.77ZM618.57 -670.808H761.526V-468.723L690.032 -647.323L618.57 -468.723V-670.808ZM837.741 233.379H771.031V14.2932H837.741V233.379ZM771.016 -210.793C811.101 -186.323 837.553 -129.821 837.553 -66.9283V4.79286H771.016V-210.777V-210.793ZM900.824 -213.668C884.471 -201.636 870.369 -184.464 859.472 -163.103C851.686 -147.806 845.98 -130.977 842.291 -113.258C838.632 -130.962 832.926 -147.806 825.125 -163.103C814.243 -184.479 800.11 -201.652 783.773 -213.668H900.808H900.824ZM847.043 4.7773V-66.944C847.043 -129.837 873.496 -186.339 913.581 -210.808V4.79286H847.293V4.76161H847.043V4.7773ZM923.102 129.078C948.773 131.282 972.63 142.282 991.078 160.689C1011.78 181.377 1023.17 208.862 1023.17 238.145C1023.17 267.427 1011.78 294.912 991.078 315.6C972.63 334.023 948.773 345.023 923.102 347.211V129.078ZM1062.59 119.078H926.557L994.564 -50.834L1062.59 119.078ZM1032.52 470.528C1033.7 500.529 1045.8 528.608 1067.18 549.952C1078.11 560.906 1090.85 569.39 1104.71 575.297H998.942V470.528H1032.52ZM998.942 461.012V357.195H1046.09C1070.11 360.196 1092.37 370.93 1109.77 388.321C1129.34 407.885 1140.48 433.557 1141.65 461.012H998.942ZM923.102 -99.9919H1066.06V102.093L994.564 -76.4755L923.102 102.093V-99.9919ZM228.708 461.652H161.998V242.582H228.708V461.652ZM152.477 191.127C146.568 177.299 138.047 164.58 127.119 153.626C116.16 142.673 103.418 134.188 89.5821 128.282H152.477V191.127ZM152.477 346.898C126.806 344.711 102.933 333.695 84.5011 315.288C64.9431 295.725 53.8274 270.068 52.6549 242.598H152.477V346.914V346.898ZM9.52103 347.351V242.582H43.1026C44.2751 272.583 56.407 300.662 77.7629 322.007C88.7222 332.96 101.464 341.445 115.284 347.351H9.52103ZM9.52103 128.297H42.8837C72.1503 128.297 99.6503 139.688 120.381 160.376C139.939 179.94 151.054 205.612 152.227 233.066H9.52103V128.297ZM609.049 -566.023H542.761V-566.055H542.511V-637.776C542.511 -700.669 568.964 -757.171 609.049 -781.64V-566.039V-566.023ZM520.592 -733.92C509.711 -755.311 495.578 -772.468 479.225 -784.484H596.292C579.939 -772.452 565.837 -755.311 554.94 -733.92C547.154 -718.654 541.448 -701.809 537.758 -684.106C534.1 -701.809 528.378 -718.654 520.592 -733.92ZM533.209 -337.453H466.499V-556.523H533.209V-337.453ZM466.483 -781.625C506.569 -757.155 533.021 -700.653 533.021 -637.76V-566.039H466.483V-781.625ZM456.994 -337.453H390.284V-556.523H456.994V-337.453ZM380.732 -607.962C374.822 -621.791 366.333 -634.526 355.374 -645.479C344.414 -656.402 331.704 -664.917 317.852 -670.793H380.732V-607.947V-607.962ZM380.732 -452.223C355.061 -454.426 331.204 -465.395 312.787 -483.833C293.213 -503.381 282.082 -529.069 280.909 -556.508H380.732V-452.223ZM237.776 -451.77V-556.523H271.357C272.561 -526.522 284.662 -498.459 306.049 -477.114C316.977 -466.161 329.718 -457.645 343.57 -451.77H237.791H237.776ZM237.776 -670.808H271.138C300.405 -670.808 327.936 -659.433 348.635 -638.729C368.209 -619.182 379.34 -593.509 380.513 -566.055H237.776V-670.808ZM771.047 -442.254H913.581V-337.766H771.047V-442.254ZM771.047 -556.242H913.581V-451.754H771.047V-556.242ZM1912.96 118.437V3.82411H1760.47V-109.836H1598.89V118.109H1532.18V3.82411H1370.18V233.066H1227.62V5.08974H1075.58V-109.524H923.086V-223.184H771.047V-328.297H923.086V-565.758H771.047V-680.355H618.554V-794H456.994V-566.055H390.284V-680.34H228.27V-442.222H380.747V-327.937H542.761V-556.523H609.049V-213.652H761.526V4.7773H694.816V4.79292L685.264 4.76179V118.781L532.802 118.781H390.284V5.12105H228.708V233.066H161.998V118.781H0V356.867H152.477V471.184H314.475V242.582H380.763V585.469H456.165V813.414H608.642V927.699H770.641V699.113H836.928V1041.98H998.942V927.356H1150.98V699.113H1303.9V470.512H1370.18V813.398H1532.18V698.77H1684.22V461.293H1532.18V356.227H1684.66V127.625H1750.95V470.512H1912.96V355.883H2065V118.422H1912.96V118.437Z" fill="white"/>
<path d="M685.296 347.367H542.762V242.879H685.28V242.895H685.296V347.367Z" fill="#C4AD81"/>
<path d="M368.006 14.6216C351.653 26.6532 337.535 43.8101 326.654 65.1858C318.869 80.4676 313.147 97.2963 309.488 115C305.814 97.2806 300.108 80.4676 292.307 65.1858C281.425 43.8101 267.308 26.6376 250.955 14.6216H368.006Z" fill="#50907F"/>
<path d="M228.708 242.598H161.998V461.668H228.708V242.598Z" fill="#3C729C"/>
<path d="M510.742 585.484C535.585 588.109 558.613 599.016 576.53 616.923C596.103 636.47 607.219 662.159 608.392 689.613H465.67V585.484H510.727H510.742Z" fill="#3C729C"/>
<path d="M684.858 699.129H618.148V918.199H684.858V699.129Z" fill="#50907F"/>
</g>
<defs>
<clipPath id="clip0_1_4420">
<rect width="636" height="803" fill="white"/>
</clipPath>
</defs>
</svg>
