<svg width="143" height="137" viewBox="0 0 143 137" fill="none" xmlns="http://www.w3.org/2000/svg">
<g clip-path="url(#clip0_1_4284)">
<path d="M801.857 28.9962H746.259V-11.791H801.857V28.9962ZM801.857 73.4981H746.259V32.7047H801.857V73.4981ZM742.539 22.3661L714.661 -47.3388L686.783 22.3661V-56.5185H742.545V22.3661H742.539ZM688.131 28.9962L714.655 -37.3295L741.185 28.9962H688.131ZM742.539 118.232H701.28C706.678 115.926 711.642 112.602 715.917 108.338C724.694 99.5612 729.53 87.8806 729.53 75.4743C729.53 63.068 724.694 51.3813 715.917 42.6103C711.642 38.3346 706.684 35.0103 701.28 32.7169H742.539V118.232ZM686.777 32.8999C696.791 33.7538 706.098 38.0418 713.283 45.2392C721.358 53.3149 725.804 64.0439 725.804 75.4743C725.804 86.9047 721.358 97.6337 713.283 105.709C706.092 112.901 696.791 117.195 686.777 118.049V32.8999ZM683.057 -15.6093H657.197V-15.6215H657.112V-43.6181C657.112 -68.1685 667.431 -90.2303 683.057 -99.7699V-15.6093ZM655.252 -61.7091C654.715 -64.3014 654.069 -66.8388 653.3 -69.3274C652.288 -72.6333 651.074 -75.8294 649.653 -78.8914C649.293 -79.6538 648.927 -80.4163 648.549 -81.1604C648.013 -82.2095 647.47 -83.2159 646.902 -84.2101C645.768 -86.1925 644.548 -88.065 643.268 -89.84C642.627 -90.7244 641.962 -91.5722 641.285 -92.4017C638.584 -95.7076 635.613 -98.55 632.424 -100.904H678.092C674.902 -98.55 671.932 -95.7076 669.231 -92.4017C668.554 -91.5722 667.895 -90.7244 667.248 -89.84C665.962 -88.0711 664.742 -86.1925 663.613 -84.2101C663.04 -83.222 662.491 -82.2095 661.955 -81.1604C659.68 -76.6834 657.85 -71.877 656.478 -66.8266C656.02 -65.1493 655.618 -63.4475 655.258 -61.7152M653.477 73.6078H627.453V-11.9069H653.477V73.6078ZM627.447 -99.7699C643.072 -90.2303 653.392 -68.1624 653.392 -43.6181V-15.6215H627.447V-99.7699ZM623.733 73.6078H597.709V-11.9069H623.733V73.6078ZM653.318 162.843H597.709V122.056H653.318V162.843ZM653.318 207.333H597.709V166.546H653.318V207.333ZM594.001 -31.9864C591.695 -37.3783 588.372 -42.3494 584.108 -46.6251C579.833 -50.9008 574.862 -54.2129 569.477 -56.5185H594.007V-31.9864H594.001ZM594.001 28.8133C583.986 27.9594 574.673 23.6592 567.483 16.474C559.853 8.83743 555.517 -1.18399 555.059 -11.9008H594.001V28.8194V28.8133ZM594.001 73.6078H538.22V32.7169H594.001V73.6078ZM594.001 156.219L566.111 86.5021L538.233 156.219V77.3346H594.001V156.219ZM594.001 252.079H552.742C558.133 249.773 563.104 246.449 567.379 242.185C576.162 233.408 580.986 221.728 580.986 209.321C580.986 196.915 576.155 185.228 567.379 176.451C563.104 172.188 558.133 168.863 552.742 166.558H594.001V252.079ZM539.58 162.843L566.111 96.5175L592.647 162.843H539.58ZM540.099 166.942C540.715 167.028 541.337 167.113 541.953 167.229C544.399 167.656 546.802 168.296 549.125 169.132C553.193 170.596 557.017 172.682 560.481 175.353C561.976 176.488 563.397 177.732 564.744 179.086V179.098C572.819 187.174 577.265 197.903 577.265 209.321C577.265 220.74 572.819 231.481 564.744 239.556C557.548 246.754 548.247 251.042 538.227 251.908V166.747C538.855 166.802 539.477 166.869 540.093 166.948M538.233 -11.9008H551.333C551.79 -0.189758 556.523 10.771 564.854 19.1029C569.13 23.3786 574.1 26.6906 579.492 28.9962H538.233V-11.9008ZM538.233 -56.5185H551.248C562.665 -56.5185 573.393 -52.072 581.48 -43.9962C589.109 -36.3597 593.446 -26.3383 593.903 -15.6215H538.233V-56.5185ZM534.518 118.244H508.659V118.232H508.562V90.235C508.562 65.6846 518.881 43.6228 534.518 34.0771V118.238V118.244ZM500.011 52.6988C495.766 44.3547 490.259 37.6514 483.879 32.9609H529.536C523.156 37.6575 517.649 44.3608 513.404 52.6988C510.367 58.6702 508.141 65.2272 506.701 72.144C505.274 65.2272 503.048 58.6702 500.005 52.6988M504.933 207.461H478.909V121.946H504.933V207.461ZM478.903 34.0832C494.534 43.6228 504.859 65.6907 504.859 90.2411V118.238H478.903V34.0893V34.0832ZM475.195 -15.2433H419.591V-56.0305H475.195V-15.2433ZM475.195 29.2524H419.591V-11.5348H475.195V29.2524ZM475.195 118.232H449.171V73.6078H419.585V32.9548H475.188V118.232H475.195ZM475.195 207.461H449.171V121.946H475.195V207.461ZM445.45 101.861C443.157 96.4626 439.833 91.4977 435.558 87.2219C431.283 82.9462 426.324 79.6341 420.921 77.3285H445.45V101.861ZM445.45 162.666C435.436 161.812 426.129 157.512 418.945 150.327C411.309 142.691 406.966 132.669 406.509 121.952H445.45V162.672V162.666ZM445.45 207.583H389.694V166.558H445.45V207.583ZM445.292 252.073H389.694V211.285H445.292V252.073ZM445.292 296.574H389.694V255.787H445.292V296.574ZM385.968 73.6078V73.986H374.618C380.009 71.6804 384.98 68.3684 389.255 64.0927C398.025 55.3155 402.862 43.6411 402.862 31.2286C402.862 18.8162 398.025 7.13568 389.255 -1.63538C384.98 -5.9111 380.009 -9.23532 374.618 -11.5287H415.877V73.6017H385.968V73.6078ZM385.968 162.843H330.2V118.476H271.053V33.089H330.535V-56.1464H356.394V77.7006H385.968V162.843ZM385.968 245.455L358.09 175.738L330.2 245.455V166.558H385.968V245.455ZM331.56 252.073L358.09 185.747L384.614 252.073H331.56ZM330.2 341.125V255.976C340.214 256.836 349.527 261.13 356.718 268.315C364.793 276.391 369.239 287.132 369.239 298.551C369.239 309.969 364.793 320.71 356.718 328.786C349.527 335.977 340.214 340.271 330.2 341.125ZM385.968 341.308H344.709C350.106 339.002 355.071 335.69 359.346 331.415C368.123 322.631 372.965 310.969 372.965 298.551C372.965 286.132 368.129 274.47 359.346 265.687C355.071 261.411 350.113 258.099 344.709 255.793H385.968V341.308ZM326.485 207.467H300.626L300.541 207.461V179.464C300.541 154.914 310.86 132.858 326.485 123.306V207.467ZM291.984 141.934C287.739 133.584 282.232 126.887 275.853 122.196H321.521C315.142 126.893 309.628 133.584 305.383 141.934C302.346 147.893 300.12 154.463 298.693 161.379C297.266 154.463 295.027 147.893 291.99 141.934M296.912 296.696H270.888V211.182H296.912V296.696ZM270.87 123.306C286.507 132.858 296.827 154.914 296.827 179.464V207.461H270.87V123.313V123.306ZM267.338 73.864H211.741V33.0768H267.326V33.089H267.338V73.864ZM267.338 118.366H211.741V77.5725H267.338V118.366ZM267.168 207.461H241.144V162.849H211.741V122.074H267.168V207.461ZM267.168 296.696H241.144V211.182H267.168V296.696ZM237.43 191.096C235.124 185.698 231.8 180.727 227.537 176.451C223.262 172.188 218.291 168.863 212.894 166.558H237.43V191.096ZM237.43 251.89C227.415 251.036 218.102 246.748 210.912 239.55C203.276 231.92 198.946 221.892 198.476 211.182H237.43V251.89ZM181.661 252.073V211.182H194.762C195.219 222.893 199.952 233.847 208.283 242.185C212.558 246.449 217.517 249.773 222.92 252.073H181.661ZM177.947 163.106H166.762C172.159 160.8 177.118 157.476 181.393 153.212C190.175 144.435 195.012 132.755 195.012 120.348C195.012 107.942 190.175 96.2552 181.393 87.4842C177.118 83.2084 172.159 79.8842 166.762 77.5786H208.021V162.843H177.953V163.099L177.947 163.106ZM152.253 77.7738C162.267 78.6277 171.58 82.9157 178.77 90.1131C186.845 98.1888 191.291 108.918 191.291 120.348C191.291 131.779 186.845 142.495 178.77 150.583C171.58 157.775 162.267 162.056 152.253 162.923V77.7738ZM148.538 29.2646H122.679V29.2524H122.581V1.25583C122.581 -23.2946 132.901 -45.3564 148.538 -54.9021V29.2585V29.2646ZM118.782 -24.4535C117.513 -28.589 115.928 -32.5475 114.031 -36.2804C109.786 -44.6245 104.279 -51.3278 97.8993 -56.0183H143.568C137.188 -51.3217 131.675 -44.6184 127.43 -36.2804C124.393 -30.309 122.167 -23.746 120.734 -16.8353C120.191 -19.4276 119.544 -21.9649 118.782 -24.4535ZM118.965 118.482H92.9348V32.967H118.965V118.482ZM92.9287 -54.896C108.554 -45.3564 118.873 -23.2885 118.873 1.26187V29.2585H92.9287V-54.89V-54.896ZM206.667 73.864H153.613L180.143 7.53827L206.667 73.864ZM216.273 172.407C217.309 173.017 218.328 173.664 219.31 174.371C220.298 175.067 221.261 175.811 222.182 176.598C222.195 176.604 222.195 176.598 222.195 176.598C223.128 177.378 224.03 178.208 224.909 179.08C226.574 180.745 228.086 182.539 229.434 184.423C230.202 185.491 230.928 186.607 231.587 187.735C232.081 188.583 232.55 189.449 232.99 190.334C233.282 190.925 233.563 191.517 233.819 192.115C235.911 196.915 237.112 202.106 237.344 207.455H181.674V166.814H199.251C205.319 167.461 211.095 169.364 216.285 172.401M152.259 -11.6446H207.844V-11.5226H208.015V67.24L180.137 -2.4649L152.259 67.24V-11.6446ZM267.332 29.3744H211.747V-11.5226H267.332V29.3744ZM211.57 -56.1464H224.671C225.128 -44.4354 229.849 -33.4746 238.18 -25.1428C242.455 -20.867 247.426 -17.5428 252.823 -15.2494H211.735V-15.3653H211.564V-56.1525L211.57 -56.1464ZM267.332 -56.1464V-15.4263C257.318 -16.2802 248.011 -20.5804 240.827 -27.7655C233.191 -35.4021 228.848 -45.4236 228.391 -56.1403H267.332V-56.1464ZM211.57 -100.758H224.579C235.996 -100.758 246.736 -96.3115 254.811 -88.2358C262.447 -80.5992 266.79 -70.5778 267.247 -59.861H211.576V-100.758H211.57ZM267.332 -100.758V-76.2259C265.027 -81.6179 261.715 -86.5889 257.44 -90.8647C253.165 -95.1404 248.206 -98.4524 242.803 -100.758H267.332ZM271.04 -56.1464H297.071V29.3744H271.04V-56.1464ZM255.805 -148.84C261.203 -151.146 266.174 -154.458 270.449 -158.734C279.219 -167.511 284.056 -179.179 284.056 -191.598C284.056 -204.016 279.219 -215.678 270.449 -224.462C266.174 -228.737 261.203 -232.049 255.805 -234.355H297.071V-148.84H255.805ZM241.308 -234.172C251.323 -233.318 260.63 -229.018 267.826 -221.833C275.901 -213.757 280.347 -203.016 280.347 -191.598C280.347 -180.179 275.901 -169.438 267.826 -161.362C260.63 -154.171 251.323 -149.877 241.308 -149.023V-234.172ZM295.717 -238.076H242.662L269.186 -304.401L295.717 -238.076ZM241.308 -323.578H297.077V-244.694L269.186 -314.411L241.308 -244.694V-323.578ZM326.809 29.3744H300.785V-56.1464H326.809V29.3744ZM300.779 -144.009C316.416 -134.458 326.735 -112.402 326.735 -87.8515V-59.8549H300.779V-144.003V-144.009ZM351.418 -145.132C345.038 -140.435 339.537 -133.732 335.286 -125.394C332.249 -119.422 330.023 -112.853 328.583 -105.936C327.156 -112.847 324.93 -119.422 321.887 -125.394C317.642 -133.738 312.129 -140.441 305.755 -145.132H351.412H351.418ZM330.438 -59.861V-87.8576C330.438 -112.408 340.757 -134.464 356.394 -144.016V-59.8549H330.535V-59.8671H330.438V-59.861ZM360.109 -11.3396C370.123 -10.4796 379.43 -6.18558 386.627 0.999603C394.701 9.07532 399.148 19.8043 399.148 31.2347C399.148 42.6652 394.701 53.3942 386.627 61.4699C379.43 68.6612 370.123 72.9552 360.109 73.8091V-11.3396ZM414.523 -15.2433H361.456L387.987 -81.5691L414.523 -15.2433ZM402.795 121.946C403.252 133.657 407.973 144.618 416.316 152.95C420.579 157.226 425.55 160.538 430.953 162.843H389.694V121.946H402.795ZM389.694 118.232V77.7067H408.089C417.456 78.8778 426.141 83.0681 432.929 89.8568C440.565 97.4934 444.907 107.515 445.365 118.232H389.694ZM360.109 -100.758H415.877V-21.8734L387.987 -91.5783L360.109 -21.8734V-100.758ZM89.2206 118.482H63.1966V32.967H89.2206V118.482ZM59.4824 12.8814C57.177 7.4834 53.8531 2.5184 49.59 -1.75732C45.3147 -6.03308 40.3441 -9.34509 34.9466 -11.6507H59.4824V12.8814ZM59.4824 73.6872C49.468 72.8332 40.155 68.5331 32.9645 61.3479C25.3348 53.7113 20.9985 43.696 20.541 32.9731H59.4824V73.6932V73.6872ZM3.71422 73.864V32.967H16.8146C17.272 44.678 22.0048 55.6388 30.3358 63.9706C34.6112 68.2464 39.5818 71.5584 44.9732 73.864H3.71422ZM3.71422 -11.6446H16.7292C28.1463 -11.6446 38.8743 -7.19806 46.9614 0.877655C54.5911 8.51419 58.9274 18.5356 59.3848 29.2524H3.71422V-11.6446ZM237.594 -282.675H211.735V-282.687H211.637V-310.684C211.637 -335.234 221.957 -357.29 237.594 -366.842V-282.681V-282.675ZM203.087 -348.214C198.842 -356.564 193.329 -363.261 186.949 -367.952H232.618C226.238 -363.255 220.737 -356.564 216.486 -348.214C213.449 -342.255 211.223 -335.68 209.783 -328.769C208.356 -335.68 206.124 -342.255 203.087 -348.214ZM208.009 -193.452H181.985V-278.967H208.009V-193.452ZM181.979 -366.836C197.616 -357.284 207.935 -335.228 207.935 -310.678V-282.681H181.979V-366.836ZM178.276 -193.452H152.253V-278.967H178.276V-193.452ZM148.526 -299.046C146.221 -304.444 142.909 -309.415 138.634 -313.691C134.358 -317.954 129.4 -321.279 123.996 -323.572H148.526V-299.04V-299.046ZM148.526 -238.253C138.512 -239.113 129.205 -243.394 122.02 -250.592C114.385 -258.222 110.042 -268.25 109.585 -278.96H148.526V-238.253ZM92.7579 -238.076V-278.967H105.858C106.328 -267.256 111.048 -256.301 119.392 -247.969C123.655 -243.693 128.625 -240.369 134.029 -238.076H92.764H92.7579ZM92.7579 -323.578H105.773C117.19 -323.578 127.93 -319.138 136.005 -311.056C143.641 -303.425 147.983 -293.404 148.441 -282.687H92.7579V-323.578ZM300.791 -234.361H356.394V-193.574H300.791V-234.361ZM300.791 -278.857H356.394V-238.07H300.791V-278.857ZM746.259 -15.4934V-60.2331H686.771V-104.601H623.739V-15.6215H597.715V-60.2331H534.518V29.2524H478.903V-59.739H419.591V-104.479H360.103V-148.846H300.791V-189.878H360.103V-282.571H300.791V-327.305H241.302V-371.667H178.276V-282.687H152.253V-327.299H89.0498V-234.349H148.532V-189.737H211.735V-278.967H237.594V-145.126H297.077V-59.861H271.053V-104.473H207.85V-15.3592H152.253V-59.7268H89.2206V29.2524H63.1966V-15.3592H0V77.5786H59.4824V122.202H122.679V32.967H148.538V166.814H177.953V255.793H237.436V300.405H300.632V211.176H326.492V345.016H389.694V300.271H449.006V211.176H508.659V121.94H534.518V255.787H597.715V211.041H657.027V118.341H597.715V77.3285H657.197V-11.9069H683.057V121.94H746.259V77.1944H805.571V-15.4995H746.259V-15.4934Z" fill="#154466"/>
</g>
<defs>
<clipPath id="clip0_1_4284">
<rect width="143.187" height="228.556" fill="white" transform="translate(0 -92.2778)"/>
</clipPath>
</defs>
</svg>
