<svg width="24" height="24" viewBox="0 0 24 24" fill="none" xmlns="http://www.w3.org/2000/svg">
<g clip-path="url(#clip0_103_2189)">
<path d="M21.9506 21.0761C19.4127 17.4554 16.8748 13.8346 14.3391 10.2116C13.968 10.6332 13.5994 11.0521 13.2305 11.4737C15.7115 15.0164 18.195 18.5591 20.6759 22.0995C20.7215 22.1652 20.767 22.2285 20.8126 22.2945H17.6078L11.5145 13.4328C11.1434 13.8544 10.7726 14.2784 10.4037 14.6998C11.8673 16.8245 13.3286 18.9516 14.7899 21.0763C15.4615 22.051 16.1306 23.0256 16.802 24.0003H23.9993C23.3141 23.0256 22.6314 22.051 21.9508 21.0763L21.9506 21.0761ZM3.44751 1.7055H6.38596L8.86248 5.23841C9.98463 6.83924 11.1068 8.44245 12.2289 10.0433C12.5978 9.62168 12.9664 9.20272 13.3353 8.78111C11.2845 5.85505 9.23356 2.92872 7.18283 0H0.294922C2.23425 2.82139 4.17358 5.64067 6.11291 8.46206C7.21452 10.0605 8.3139 11.6587 9.41328 13.2571C9.78189 12.8355 10.1507 12.4142 10.5218 11.9926L3.44751 1.7055Z" fill="#C4AD81"/>
<path d="M11.5152 13.4331C11.1441 13.8547 10.7733 14.2787 10.4044 14.7001C8.54008 16.8248 6.67601 18.9519 4.81193 21.0766C3.95837 22.0513 3.10481 23.0259 2.24902 24.0006H0C0.853562 23.0259 1.70712 22.0513 2.56291 21.0766C3.74869 19.722 4.93695 18.3671 6.12297 17.0124C7.22013 15.7601 8.31728 14.5101 9.41443 13.2577C9.78304 12.8361 10.1519 12.4148 10.523 11.9932L11.5154 13.4331H11.5152Z" fill="#C4AD81"/>
<path d="M23.2929 0C20.3089 3.40385 17.3246 6.8077 14.3406 10.2116C13.9695 10.6332 13.6009 11.0521 13.2321 11.4737C12.8996 10.9986 12.5652 10.5211 12.2305 10.0435C12.5993 9.62194 12.9679 9.20299 13.3368 8.78138C15.9019 5.85505 18.4673 2.92633 21.0325 0H23.2926H23.2929Z" fill="#C4AD81"/>
</g>
<defs>
<clipPath id="clip0_103_2189">
<rect width="24" height="24" fill="white"/>
</clipPath>
</defs>
</svg>
