<svg width="205" height="58" viewBox="0 0 205 58" fill="none" xmlns="http://www.w3.org/2000/svg">
<path d="M40.2461 58V51.6037V45.205H49.1689H58.0918V51.6037V58H49.1689H40.2461Z" fill="#3B729D"/>
<path d="M40.2461 42.9325V36.5337V30.1375H49.1689H58.0918V36.5337V42.9325H49.1689H40.2461Z" fill="#3B729D"/>
<path d="M50.3066 27.8623V18.9536C50.3066 11.2398 53.3357 4.27052 58.0915 0.874023V27.8623H50.3066Z" fill="#C2AB80"/>
<path d="M49.1684 10.6548C48.7 9.02141 48.0917 7.46641 47.351 6.01182C46.1099 3.57771 44.5819 1.56234 42.7988 0H55.5405C53.7574 1.56234 52.2294 3.57771 50.9883 6.01182C50.2452 7.46641 49.6369 9.02141 49.1684 10.6548Z" fill="#C2AB80"/>
<path d="M40.2461 27.8624V0.874146C45.0018 4.27064 48.0309 11.2399 48.0309 18.9537V27.8624H40.2461Z" fill="#C2AB80"/>
<path d="M27.2891 57.9997C28.4369 57.3165 29.4989 56.4888 30.4604 55.5264C33.5262 52.4654 35.2137 48.3955 35.2137 44.0685C35.2137 39.739 33.5262 35.6691 30.4604 32.6105C29.4965 31.6481 28.4345 30.8204 27.2891 30.1372H37.968V57.9997H27.2891Z" fill="#51917F"/>
<path d="M20.125 30.184C23.419 30.4484 26.4995 31.8687 28.8541 34.2171C31.4883 36.8496 32.9403 40.3465 32.9403 44.0687C32.9403 47.7909 31.4883 51.2878 28.8541 53.9203C26.502 56.2687 23.419 57.689 20.125 57.9534V30.184Z" fill="#51917F"/>
<path d="M30.1855 27.8624V13.9311V-0.00012207H34.078H37.9704V13.9311V27.8624H34.078H30.1855Z" fill="#3B729D"/>
<path d="M20.125 27.8624V13.9311V-0.00012207H24.0174H27.9074V13.9311V27.8624H24.0174H20.125Z" fill="#3B729D"/>
<path d="M0 30.1375H17.8457V53.237L8.92285 30.9627L0 53.237V30.1375Z" fill="#C2AB80"/>
<path d="M17.8453 27.8183C14.5514 27.5539 11.4708 26.1335 9.11624 23.7827C6.76412 21.4343 5.33911 18.3561 5.07422 15.0674H17.8429V27.8183H17.8453Z" fill="#51917F"/>
<path d="M17.8458 5.63948C17.1615 4.49344 16.3325 3.43311 15.3686 2.47072C14.4071 1.51079 13.3451 0.683095 12.1973 -0.00012207H17.8458V5.63948Z" fill="#51917F"/>
<path d="M0.542969 57.9999L8.92378 37.0846L17.3046 57.9999H0.542969Z" fill="#C2AB80"/>
<path d="M0 12.795V0H3.8924C7.62048 0 11.1229 1.44969 13.7595 4.07971C16.1117 6.42812 17.5342 9.50627 17.7991 12.795H0Z" fill="#51917F"/>
<path d="M0 27.8625V15.0675H2.7936C3.0634 18.9636 4.72632 22.6123 7.50766 25.3892C8.47156 26.3516 9.53357 27.1793 10.679 27.8625H0Z" fill="#51917F"/>
<path d="M78.0379 14.3621C78.2684 14.3621 78.4548 14.2887 78.602 14.1417C78.7491 13.9948 78.8227 13.8136 78.8227 13.5932C78.8227 13.3532 78.7491 13.1671 78.602 13.0373C78.4548 12.9075 78.2684 12.8414 78.0379 12.8414C77.8171 12.8414 77.6332 12.9075 77.4811 13.0373C77.329 13.1671 77.2481 13.3483 77.2383 13.5785C77.2383 13.8087 77.3168 13.9973 77.4737 14.1417C77.6307 14.2887 77.8196 14.3621 78.0379 14.3621Z" fill="white"/>
<path d="M75.45 14.3621C75.6486 14.3621 75.8252 14.2887 75.9822 14.1417C76.1392 13.9948 76.2177 13.8136 76.2177 13.5932C76.2177 13.3532 76.1392 13.1671 75.9822 13.0373C75.8252 12.9075 75.6462 12.8414 75.45 12.8414C75.2194 12.8414 75.0281 12.9075 74.8785 13.0373C74.7264 13.1671 74.6504 13.3483 74.6504 13.5785C74.6504 13.8087 74.7264 13.9973 74.8785 14.1417C75.0281 14.2887 75.2194 14.3621 75.45 14.3621Z" fill="white"/>
<path d="M97.7867 14.2667C97.9437 14.4014 98.1326 14.465 98.3509 14.4552C98.5495 14.4552 98.7286 14.3891 98.8831 14.2593C99.0401 14.1295 99.1185 13.9385 99.1185 13.6888C99.1185 13.4586 99.0401 13.2774 98.8831 13.1402C98.7261 13.0055 98.5422 12.9419 98.3337 12.9517C98.1252 12.9517 97.9413 13.0178 97.7843 13.1476C97.6273 13.2774 97.5488 13.4586 97.5488 13.6888C97.5513 13.9385 97.6298 14.132 97.7867 14.2667Z" fill="white"/>
<path d="M110.335 27.4705C110.178 27.6174 110.1 27.7987 110.1 28.019C110.1 28.2492 110.178 28.4304 110.335 28.5676C110.492 28.7023 110.681 28.7708 110.899 28.7708C111.098 28.7708 111.274 28.7023 111.431 28.5676C111.588 28.4329 111.667 28.2492 111.667 28.019C111.667 27.7987 111.588 27.6174 111.431 27.4705C111.274 27.3236 111.095 27.2501 110.899 27.2501C110.681 27.2501 110.492 27.3236 110.335 27.4705Z" fill="white"/>
<path d="M112.469 25.2298V16.632H111.231V23.9931H104.564V21.1109C104.564 20.1289 104.383 19.311 104.022 18.6523C103.662 17.9936 103.127 17.4891 102.423 17.134C101.717 16.7789 100.846 16.6026 99.8108 16.6026H93.5516V15.8043H92.313V23.9956H79.8117V15.8337H78.5731V16.6002H75.9364C74.921 16.6002 74.043 16.7814 73.3022 17.1414C72.5591 17.5013 71.9852 18.0082 71.5756 18.6596C71.1684 19.3135 70.9648 20.0726 70.9648 20.9395C70.9648 21.8259 71.1684 22.5924 71.5756 23.234C71.9827 23.8756 72.564 24.3702 73.317 24.7131C74.0699 25.0584 74.9627 25.2298 76.0002 25.2298H112.469ZM78.5731 23.9931H75.6863C74.9848 23.9931 74.3667 23.8707 73.8271 23.6258C73.2875 23.3809 72.8706 23.0259 72.5714 22.5606C72.2721 22.0953 72.125 21.5566 72.125 20.9395C72.125 20.3126 72.2746 19.7616 72.5714 19.2865C72.8706 18.8115 73.2851 18.4515 73.8173 18.2066C74.3495 17.9617 74.9725 17.8393 75.6838 17.8393H78.5706V23.9931H78.5731ZM103.323 23.9931H93.5516V17.8368H99.8893C100.988 17.8466 101.834 18.1111 102.43 18.6278C103.026 19.1445 103.326 19.9159 103.326 20.937V23.9931H103.323Z" fill="white"/>
<path d="M127.165 14.5799C127.363 14.5799 127.54 14.5064 127.697 14.3595C127.854 14.2126 127.932 14.0314 127.932 13.811C127.932 13.571 127.854 13.3849 127.697 13.2551C127.54 13.1253 127.363 13.0592 127.165 13.0592C126.934 13.0592 126.743 13.1253 126.593 13.2551C126.441 13.3849 126.365 13.5661 126.365 13.7963C126.365 14.0265 126.441 14.215 126.593 14.3595C126.745 14.5064 126.934 14.5799 127.165 14.5799Z" fill="white"/>
<path d="M129.753 14.58C129.983 14.58 130.17 14.5066 130.317 14.3596C130.464 14.2127 130.538 14.0315 130.538 13.8111C130.538 13.5711 130.464 13.385 130.317 13.2552C130.17 13.1254 129.981 13.0593 129.753 13.0593C129.532 13.0593 129.348 13.1254 129.196 13.2552C129.044 13.385 128.963 13.5662 128.953 13.7964C128.953 14.0266 129.032 14.2152 129.189 14.3596C129.346 14.5066 129.534 14.58 129.753 14.58Z" fill="white"/>
<path d="M136.653 25.2299V12.528H135.414V23.9908H131.556V16.6003H127.698C126.705 16.6003 125.829 16.7815 125.072 17.1415C124.314 17.5015 123.732 18.0084 123.33 18.6598C122.928 19.3136 122.727 20.0727 122.727 20.9396C122.727 21.8261 122.933 22.5926 123.347 23.2341C123.529 23.5158 123.742 23.768 123.987 23.9933H116.47V12.528H115.246V25.2299H136.653ZM127.478 23.9933C126.747 23.9933 126.116 23.8708 125.587 23.6259C125.059 23.3811 124.645 23.026 124.348 22.5607C124.049 22.0954 123.902 21.5567 123.902 20.9396C123.902 20.3127 124.046 19.7617 124.333 19.2867C124.62 18.8116 125.037 18.4516 125.579 18.2067C126.124 17.9619 126.757 17.8394 127.478 17.8394H130.333V23.9933H127.478Z" fill="white"/>
<path d="M140.954 12.528H140.341H139.73V18.8802V25.2299H140.341H140.954V18.8802V12.528Z" fill="white"/>
<path d="M160.779 14.2667C160.936 14.4014 161.125 14.465 161.343 14.4552C161.542 14.4552 161.718 14.3891 161.875 14.2593C162.032 14.1295 162.111 13.9385 162.111 13.6888C162.111 13.4586 162.032 13.2774 161.875 13.1402C161.718 13.0055 161.534 12.9419 161.326 12.9517C161.117 12.9517 160.933 13.0178 160.776 13.1476C160.62 13.2774 160.541 13.4586 160.541 13.6888C160.543 13.9385 160.622 14.132 160.779 14.2667Z" fill="white"/>
<path d="M164.96 17.1341C164.254 16.7791 163.383 16.6028 162.348 16.6028H156.121V15.8044H154.897V25.9523H151.853C150.651 25.9523 149.724 25.6756 149.077 25.1222C148.429 24.5687 148.103 23.7239 148.103 22.5852V17.6974H146.879V22.7248C146.879 23.6749 147.063 24.483 147.428 25.1515C147.794 25.8201 148.333 26.327 149.045 26.6698C149.756 27.0151 150.629 27.1865 151.664 27.1865H156.118V25.2299H167.114V21.111C167.114 20.129 166.93 19.3111 166.564 18.6524C166.201 17.9937 165.664 17.4892 164.96 17.1341ZM165.877 23.9933H156.121V17.837H162.458C163.557 17.8467 164.401 18.1112 164.992 18.6279C165.583 19.1446 165.877 19.916 165.877 20.9371V23.9933Z" fill="white"/>
<path d="M184.662 27.4852C184.51 27.6419 184.434 27.8182 184.434 28.0166C184.434 28.2468 184.51 28.428 184.662 28.5651C184.814 28.6998 185.005 28.7684 185.233 28.7684C185.432 28.7684 185.608 28.6998 185.765 28.5651C185.922 28.4304 186.001 28.2517 186.001 28.0337C186.001 27.8256 185.922 27.6419 185.765 27.4852C185.608 27.3285 185.429 27.2501 185.233 27.2501C185.005 27.2501 184.814 27.3285 184.662 27.4852Z" fill="white"/>
<path d="M187.266 27.4852C187.114 27.6419 187.033 27.8182 187.023 28.0166C187.023 28.2468 187.102 28.428 187.259 28.5651C187.416 28.6998 187.605 28.7684 187.823 28.7684C188.054 28.7684 188.24 28.6998 188.387 28.5651C188.534 28.4304 188.608 28.2517 188.608 28.0337C188.608 27.8256 188.534 27.6419 188.387 27.4852C188.24 27.3285 188.054 27.2501 187.823 27.2501C187.602 27.2501 187.418 27.3285 187.266 27.4852Z" fill="white"/>
<path d="M188.779 25.2298V16.632H187.54V23.9931H170.835V12.5278H169.611V25.2298H188.779Z" fill="white"/>
<path d="M200.01 25.2299V12.528H198.772V23.9908H194.975V16.6322H193.736V25.1197C193.736 25.9646 193.57 26.5841 193.234 26.9759C192.9 27.3677 192.38 27.5636 191.681 27.5636C191.441 27.5636 191.2 27.5538 190.96 27.5318C190.72 27.5098 190.469 27.4804 190.207 27.4387L190.286 28.4893C190.788 28.6142 191.306 28.6778 191.838 28.6778C192.559 28.6778 193.145 28.5529 193.594 28.3007C194.043 28.0509 194.386 27.6591 194.622 27.1253C194.838 26.6355 194.955 26.0037 194.973 25.2299H200.01Z" fill="white"/>
<path d="M204.306 12.5278H203.695H203.082V18.88V25.2298H203.695H204.306V18.88V12.5278Z" fill="white"/>
<path d="M77.3216 40.3C77.8907 40.0232 78.3076 39.6388 78.5774 39.149C78.8448 38.6593 78.9797 38.0862 78.9797 37.4324V37.4177C78.9797 36.7908 78.8472 36.2447 78.5848 35.777C78.3199 35.3093 77.9054 34.942 77.3364 34.6726C76.7673 34.4057 76.0413 34.271 75.1608 34.271H70.7656V45.32H71.9527V40.7138H74.9156L78.0403 45.32H79.35L76.2032 40.6379C76.6251 40.5718 76.9979 40.4591 77.3216 40.3ZM71.9527 35.3901H75.0922C75.6563 35.3901 76.1321 35.4562 76.5172 35.5885C76.9047 35.7207 77.2064 35.9362 77.4247 36.2349C77.6429 36.5337 77.7533 36.9353 77.7533 37.4349V37.4495C77.7533 37.9662 77.6479 38.3825 77.4394 38.696C77.2309 39.0094 76.9292 39.2372 76.5392 39.3768C76.1468 39.5188 75.6661 39.5874 75.0922 39.5874H71.9527V35.3901Z" fill="white"/>
<path d="M81.6953 45.3226H82.2962H82.8971V39.7981V34.2711H82.2962H81.6953V39.7981V45.3226Z" fill="white"/>
<path d="M93.3615 34.2711L90.0455 39.7515L86.7172 34.2711H85.2578L89.4053 41.0029V45.3226H90.5924V41.0029L94.7669 34.2711H93.3615Z" fill="white"/>
<path d="M98.6425 34.2711L94.1934 45.3201H95.4344L96.7785 41.9016H101.993L103.337 45.3201H104.593L100.09 34.2711H98.6425ZM99.3808 35.4441L101.591 40.8535H97.1832L99.3808 35.4441Z" fill="white"/>
<path d="M113.32 34.9395C112.46 34.4938 111.429 34.271 110.23 34.271H106.818V45.32H110.23C111.422 45.32 112.45 45.0947 113.313 44.6466C114.176 44.196 114.829 43.5544 115.27 42.7194C115.712 41.8843 115.933 40.9024 115.933 39.7759V39.7612C115.933 38.6446 115.712 37.6724 115.27 36.8447C114.831 36.0219 114.181 35.3852 113.32 34.9395ZM114.706 39.7759C114.706 40.6844 114.527 41.4729 114.167 42.139C113.806 42.8075 113.289 43.3169 112.612 43.672C111.935 44.027 111.135 44.2034 110.218 44.2034H108.02V35.3877H110.218C111.145 35.3877 111.949 35.5615 112.626 35.9117C113.303 36.2619 113.821 36.7663 114.174 37.4251C114.53 38.0838 114.706 38.8576 114.706 39.749V39.7759Z" fill="white"/>
<path d="M125.963 39.0682H119.741V34.271H118.539V45.3225H119.741V40.1996H125.963V45.3225H127.165V34.271H125.963V39.0682Z" fill="white"/>
<path d="M141.123 39.0683H134.901V34.2711H133.701V45.3226H134.901V40.1997H141.123V45.3226H142.325V34.2711H141.123V39.0683Z" fill="white"/>
<path d="M153.691 34.8512C152.808 34.3566 151.817 34.1093 150.716 34.1093C149.604 34.1093 148.611 34.3566 147.733 34.8512C146.855 35.3459 146.168 36.0242 145.673 36.8887C145.177 37.7506 144.93 38.7155 144.93 39.7782V39.7929C144.93 40.8729 145.177 41.845 145.673 42.7095C146.168 43.5714 146.857 44.2498 147.74 44.7395C148.623 45.2293 149.619 45.4742 150.728 45.4742C151.819 45.4742 152.805 45.2293 153.688 44.7395C154.571 44.2498 155.26 43.569 155.756 42.7021C156.251 41.8352 156.499 40.8655 156.499 39.7929V39.7782C156.499 38.7155 156.251 37.7531 155.756 36.8887C155.263 36.0242 154.574 35.3459 153.691 34.8512ZM155.26 39.8027C155.26 40.7112 155.057 41.5047 154.652 42.1879C154.247 42.8686 153.696 43.4025 152.994 43.7894C152.293 44.1763 151.54 44.3673 150.728 44.3673C149.882 44.3673 149.116 44.1763 148.435 43.7943C147.753 43.4123 147.201 42.876 146.784 42.1854C146.365 41.4949 146.156 40.7014 146.156 39.8003V39.7733C146.156 38.8746 146.362 38.0812 146.777 37.3956C147.191 36.7099 147.74 36.1736 148.427 35.7867C149.114 35.3998 149.877 35.2088 150.713 35.2088C151.549 35.2088 152.315 35.3973 153.006 35.7744C153.698 36.1516 154.245 36.6854 154.65 37.376C155.054 38.0665 155.258 38.8648 155.258 39.7733V39.8027H155.26Z" fill="white"/>
<path d="M160.322 34.2711H159.123V45.3226H166.123V44.2035H160.322V34.2711Z" fill="white"/>
<path d="M174.893 34.9395C174.032 34.4938 173.002 34.271 171.802 34.271H168.391V45.32H171.802C172.994 45.32 174.022 45.0947 174.885 44.6466C175.749 44.196 176.401 43.5544 176.843 42.7194C177.284 41.8843 177.505 40.9024 177.505 39.7759V39.7612C177.505 38.6446 177.284 37.6724 176.843 36.8447C176.401 36.0219 175.751 35.3852 174.893 34.9395ZM176.276 39.7759C176.276 40.6844 176.097 41.4729 175.736 42.139C175.376 42.8075 174.858 43.3169 174.181 43.672C173.504 44.027 172.705 44.2034 171.788 44.2034H169.59V35.3877H171.788C172.715 35.3877 173.519 35.5615 174.196 35.9117C174.873 36.2619 175.391 36.7663 175.744 37.4251C176.099 38.0838 176.276 38.8576 176.276 39.749V39.7759Z" fill="white"/>
<path d="M180.111 45.3226H180.712H181.311V39.7981V34.2711H180.712H180.111V39.7981V45.3226Z" fill="white"/>
<path d="M191.518 43.8679L185.855 34.271H184.15V45.3225H185.337V35.6595L191.001 45.3225H192.705V34.271H191.518V43.8679Z" fill="white"/>
<path d="M200.798 39.6804V40.6624H203.842V43.5985C203.476 43.8336 203.079 44.0173 202.654 44.1446C202.154 44.294 201.637 44.3699 201.099 44.3699C200.27 44.3699 199.513 44.1887 198.821 43.8238C198.129 43.4614 197.58 42.9349 197.17 42.2492C196.761 41.5636 196.557 40.7481 196.557 39.8029V39.7882C196.557 38.8258 196.761 38.0005 197.17 37.3149C197.58 36.6292 198.129 36.1076 198.821 35.7476C199.513 35.3901 200.273 35.2089 201.099 35.2089C201.737 35.2089 202.336 35.2995 202.895 35.4807C203.454 35.6619 203.952 35.9117 204.388 36.2301L204.879 35.1942C204.288 34.8122 203.677 34.5355 203.049 34.3641C202.421 34.1926 201.771 34.1045 201.097 34.1045C199.979 34.1045 198.983 34.3469 198.11 34.8342C197.236 35.3191 196.55 35.9925 196.049 36.8496C195.549 37.7091 195.299 38.6813 195.299 39.771V39.798C195.299 40.8975 195.544 41.877 196.035 42.7414C196.525 43.6034 197.212 44.2744 198.095 44.7519C198.978 45.2294 199.974 45.467 201.082 45.467C201.774 45.467 202.468 45.369 203.162 45.1731C203.859 44.9772 204.469 44.7127 204.997 44.3772V39.678H200.798V39.6804Z" fill="white"/>
</svg>
