<svg width="243" height="259" viewBox="0 0 243 259" fill="none" xmlns="http://www.w3.org/2000/svg">
<g clip-path="url(#clip0_103_2214)">
<path d="M953.797 551.481H879.996V495.396H953.797V551.481ZM953.797 612.674H879.996V556.58H953.797V612.674ZM875.058 542.364L838.052 446.515L801.046 542.364V433.893H875.066V542.364H875.058ZM802.836 551.481L838.044 460.279L873.26 551.481H802.836ZM875.058 674.185H820.29C827.455 671.015 834.045 666.444 839.72 660.581C851.369 648.512 857.789 632.451 857.789 615.391C857.789 598.332 851.369 582.262 839.72 570.201C834.045 564.322 827.463 559.751 820.29 556.597H875.058V674.185ZM801.038 556.849C814.331 558.023 826.686 563.919 836.222 573.816C846.941 584.921 852.843 599.674 852.843 615.391C852.843 631.109 846.941 645.862 836.222 656.966C826.677 666.855 814.331 672.759 801.038 673.934V556.849ZM796.1 490.145H761.774V490.129H761.661V451.632C761.661 417.873 775.358 387.537 796.1 374.419V490.145ZM759.191 426.755C758.479 423.191 757.621 419.702 756.601 416.28C755.257 411.734 753.646 407.339 751.759 403.128C751.282 402.08 750.796 401.032 750.294 400.008C749.582 398.566 748.861 397.182 748.108 395.815C746.602 393.089 744.983 390.514 743.283 388.073C742.433 386.857 741.551 385.692 740.652 384.551C737.066 380.005 733.123 376.097 728.889 372.859H789.51C785.276 376.097 781.333 380.005 777.747 384.551C776.848 385.692 775.974 386.857 775.116 388.073C773.407 390.506 771.788 393.089 770.291 395.815C769.53 397.174 768.801 398.566 768.089 400.008C765.069 406.165 762.64 412.774 760.819 419.718C760.211 422.025 759.677 424.365 759.199 426.747M756.835 612.825H722.291V495.236H756.835V612.825ZM722.283 374.419C743.024 387.537 756.722 417.882 756.722 451.632V490.129H722.283V374.419ZM717.352 612.825H682.808V495.236H717.352V612.825ZM756.625 735.529H682.808V679.444H756.625V735.529ZM756.625 796.705H682.808V740.62H756.625V796.705ZM677.886 467.626C674.826 460.212 670.413 453.376 664.754 447.497C659.079 441.617 652.481 437.063 645.333 433.893H677.894V467.626H677.886ZM677.886 551.229C664.592 550.055 652.23 544.142 642.685 534.262C632.558 523.761 626.802 509.981 626.194 495.245H677.886V551.238V551.229ZM677.886 612.825H603.842V556.597H677.886V612.825ZM677.886 726.421L640.864 630.555L603.858 726.421V617.949H677.886V726.421ZM677.886 858.234H623.118C630.275 855.063 636.873 850.492 642.548 844.63C654.206 832.56 660.609 816.499 660.609 799.439C660.609 782.38 654.198 766.31 642.548 754.241C636.873 748.378 630.275 743.807 623.118 740.637H677.886V858.234ZM605.647 735.529L640.864 644.327L676.088 735.529H605.647ZM606.336 741.165C607.153 741.283 607.979 741.4 608.797 741.56C612.043 742.147 615.233 743.027 618.317 744.176C623.717 746.189 628.793 749.058 633.391 752.731C635.375 754.291 637.261 756.002 639.05 757.864V757.881C649.769 768.986 655.671 783.739 655.671 799.439C655.671 815.14 649.769 829.91 639.05 841.015C629.497 850.911 617.151 856.808 603.85 857.999V740.897C604.684 740.972 605.51 741.065 606.327 741.174M603.858 495.245H621.248C621.855 511.348 628.137 526.42 639.196 537.877C644.871 543.756 651.469 548.311 658.626 551.481H603.858V495.245ZM603.858 433.893H621.134C636.29 433.893 650.53 440.007 661.265 451.112C671.393 461.612 677.149 475.392 677.756 490.129H603.858V433.893ZM598.928 674.202H564.602V674.185H564.472V635.688C564.472 601.93 578.17 571.593 598.928 558.467V674.194V674.202ZM553.122 584.073C547.487 572.6 540.177 563.382 531.709 556.933H592.314C583.846 563.391 576.535 572.608 570.9 584.073C566.869 592.284 563.914 601.301 562.003 610.812C560.109 601.301 557.154 592.284 553.114 584.073M559.655 796.881H525.111V679.293H559.655V796.881ZM525.103 558.476C545.852 571.593 559.558 601.938 559.558 635.696V674.194H525.103V558.484V558.476ZM520.181 490.649H446.372V434.564H520.181V490.649ZM520.181 551.833H446.372V495.748H520.181V551.833ZM520.181 674.185H485.636V612.825H446.363V556.924H520.172V674.185H520.181ZM520.181 796.881H485.636V679.293H520.181V796.881ZM480.698 651.674C477.654 644.251 473.241 637.424 467.566 631.545C461.891 625.665 455.309 621.111 448.136 617.941H480.698V651.674ZM480.698 735.286C467.404 734.112 455.05 728.199 445.513 718.319C435.378 707.818 429.613 694.038 429.006 679.301H480.698V735.294V735.286ZM480.698 797.049H406.686V740.637H480.698V797.049ZM480.487 858.225H406.686V802.14H480.487V858.225ZM480.487 919.418H406.686V863.333H480.487V919.418ZM401.74 612.825V613.345H386.674C393.83 610.174 400.428 605.62 406.103 599.741C417.745 587.672 424.165 571.618 424.165 554.551C424.165 537.483 417.745 521.421 406.103 509.36C400.428 503.481 393.83 498.91 386.674 495.756H441.441V612.816H401.74V612.825ZM401.74 735.529H327.712V674.521H249.2V557.109H328.158V434.404H362.483V618.452H401.74V735.529ZM401.74 849.125L364.734 753.26L327.712 849.125V740.637H401.74V849.125ZM329.518 858.225L364.734 767.023L399.943 858.225H329.518ZM327.712 980.678V863.593C341.005 864.776 353.368 870.68 362.913 880.56C373.631 891.665 379.533 906.435 379.533 922.135C379.533 937.836 373.631 952.606 362.913 963.711C353.368 973.599 341.005 979.504 327.712 980.678ZM401.74 980.93H346.972C354.137 977.759 360.727 973.205 366.402 967.325C378.052 955.248 384.48 939.212 384.48 922.135C384.48 905.059 378.06 889.023 366.402 876.945C360.727 871.066 354.145 866.512 346.972 863.341H401.74V980.93ZM322.782 796.89H288.456L288.343 796.881V758.384C288.343 724.626 302.041 694.298 322.782 681.163V796.89ZM276.984 706.778C271.35 695.296 264.039 686.087 255.571 679.637H316.192C307.724 686.095 300.405 695.296 294.771 706.778C290.739 714.972 287.784 724.005 285.89 733.516C283.995 724.005 281.024 714.972 276.992 706.778M283.526 919.586H248.981V801.997H283.526V919.586ZM248.957 681.163C269.714 694.298 283.412 724.626 283.412 758.384V796.881H248.957V681.172V681.163ZM244.269 613.177H170.469V557.092H244.253V557.109H244.269V613.177ZM244.269 674.37H170.469V618.276H244.269V674.37ZM244.043 796.881H209.498V735.537H170.469V679.469H244.043V796.881ZM244.043 919.586H209.498V801.997H244.043V919.586ZM204.568 774.379C201.508 766.956 197.095 760.12 191.437 754.241C185.761 748.378 179.163 743.807 171.999 740.637H204.568V774.379ZM204.568 857.974C191.275 856.799 178.912 850.903 169.368 841.006C159.232 830.514 153.484 816.725 152.86 801.997H204.568V857.974ZM130.54 858.225V801.997H147.93C148.537 818.101 154.819 833.164 165.878 844.63C171.553 850.492 178.135 855.063 185.308 858.225H130.54ZM125.61 735.89H110.762C117.927 732.719 124.509 728.148 130.184 722.286C141.842 710.217 148.262 694.155 148.262 677.096C148.262 660.036 141.842 643.966 130.184 631.906C124.509 626.026 117.927 621.455 110.762 618.285H165.53V735.529H125.618V735.881L125.61 735.89ZM91.5026 618.553C104.796 619.727 117.158 625.624 126.703 635.52C137.422 646.625 143.324 661.378 143.324 677.096C143.324 692.813 137.422 707.549 126.703 718.671C117.158 728.559 104.796 734.447 91.5026 735.638V618.553ZM86.5723 551.85H52.2463V551.833H52.1168V513.336C52.1168 479.578 65.8148 449.241 86.5723 436.115V551.841V551.85ZM47.0732 477.984C45.3892 472.298 43.2843 466.854 40.7666 461.721C35.1319 450.248 27.8215 441.03 19.3533 434.58H79.9743C71.5061 441.039 64.1876 450.256 58.5529 461.721C54.5213 469.932 51.5663 478.957 49.6638 488.46C48.9433 484.895 48.0851 481.406 47.0732 477.984ZM47.316 674.529H12.7634V556.941H47.316V674.529ZM12.7553 436.124C33.4966 449.241 47.1946 479.586 47.1946 513.344V551.841H12.7553V436.132V436.124ZM163.733 613.177H93.308L128.524 521.975L163.733 613.177ZM176.484 748.68C177.86 749.519 179.212 750.408 180.515 751.381C181.827 752.337 183.106 753.36 184.328 754.442C184.345 754.451 184.345 754.442 184.345 754.442C185.583 755.516 186.781 756.656 187.947 757.856C190.157 760.145 192.165 762.611 193.954 765.203C194.974 766.671 195.938 768.206 196.812 769.757C197.468 770.923 198.091 772.114 198.674 773.33C199.063 774.144 199.435 774.957 199.775 775.779C202.552 782.38 204.147 789.517 204.454 796.873H130.557V740.989H153.888C161.944 741.878 169.61 744.495 176.5 748.672M91.5107 495.597H165.295V495.765H165.522V604.068L128.516 508.22L91.5107 604.068V495.597ZM244.261 552.001H170.477V495.765H244.261V552.001ZM170.242 434.404H187.632C188.239 450.508 194.505 465.579 205.564 477.036C211.239 482.916 217.837 487.487 225.001 490.64H170.46V490.481H170.234V434.396L170.242 434.404ZM244.261 434.404V490.397C230.968 489.223 218.614 483.31 209.077 473.43C198.941 462.929 193.177 449.149 192.57 434.413H244.261V434.404ZM170.242 373.06H187.51C202.665 373.06 216.922 379.175 227.641 390.279C237.777 400.78 243.541 414.56 244.148 429.296H170.25V373.06H170.242ZM244.261 373.06V406.794C241.201 399.379 236.805 392.544 231.13 386.664C225.455 380.785 218.873 376.231 211.7 373.06H244.261ZM249.184 434.404H283.736V552.001H249.184V434.404ZM228.96 306.944C236.125 303.774 242.723 299.22 248.398 293.34C260.04 281.271 266.46 265.227 266.46 248.15C266.46 231.074 260.04 215.038 248.398 202.96C242.723 197.081 236.125 192.526 228.96 189.356H283.736V306.944H228.96ZM209.717 189.608C223.01 190.782 235.364 196.695 244.917 206.575C255.636 217.68 261.538 232.449 261.538 248.15C261.538 263.851 255.636 278.621 244.917 289.725C235.364 299.614 223.01 305.518 209.717 306.693V189.608ZM281.939 184.24H211.514L246.722 93.0377L281.939 184.24ZM209.717 66.6684H283.744V175.14L246.722 79.2744L209.717 175.14V66.6684ZM323.211 552.001H288.666V434.404H323.211V552.001ZM288.658 313.587C309.416 326.721 323.114 357.049 323.114 390.808V429.305H288.658V313.595V313.587ZM355.877 312.044C347.409 318.502 340.107 327.719 334.464 339.185C330.432 347.396 327.477 356.429 325.567 365.94C323.672 356.437 320.718 347.396 316.678 339.185C311.043 327.711 303.725 318.493 295.264 312.044H355.869H355.877ZM328.028 429.296V390.799C328.028 357.041 341.726 326.713 362.483 313.579V429.305H328.158V429.288H328.028V429.296ZM367.414 496.016C380.707 497.199 393.061 503.104 402.614 512.984C413.333 524.088 419.235 538.841 419.235 554.559C419.235 570.277 413.333 585.03 402.614 596.134C393.061 606.023 380.707 611.927 367.414 613.101V496.016ZM439.644 490.649H369.203L404.419 399.446L439.644 490.649ZM424.076 679.293C424.683 695.396 430.949 710.468 442.024 721.925C447.683 727.805 454.281 732.359 461.454 735.529H406.686V679.293H424.076ZM406.686 674.185V618.461H431.103C443.538 620.071 455.066 625.833 464.077 635.168C474.213 645.669 479.977 659.449 480.584 674.185H406.686ZM367.414 373.06H441.441V481.532L404.419 385.683L367.414 481.532V373.06ZM7.83307 674.529H-26.7115V556.941H7.83307V674.529ZM-31.6418 529.322C-34.702 521.899 -39.1142 515.072 -44.7731 509.193C-50.4482 503.313 -57.0462 498.759 -64.211 495.589H-31.6418V529.322ZM-31.6418 612.934C-44.935 611.76 -57.2972 605.847 -66.8421 595.966C-76.9699 585.466 -82.726 571.694 -83.3331 556.949H-31.6418V612.942V612.934ZM-105.669 613.177V556.941H-88.2796C-87.6725 573.044 -81.3902 588.116 -70.3314 599.573C-64.6562 605.452 -58.0582 610.007 -50.9016 613.177H-105.669ZM-105.669 495.597H-88.393C-73.2377 495.597 -58.9973 501.711 -48.2624 512.816C-38.1346 523.317 -32.3785 537.097 -31.7713 551.833H-105.669V495.597ZM204.786 122.913H170.46V122.896H170.331V84.3989C170.331 50.6406 184.029 20.3125 204.786 7.1782V122.904V122.913ZM158.981 32.7926C153.346 21.3106 146.027 12.1015 137.559 5.65174H198.18C189.712 12.1099 182.41 21.3106 176.767 32.7926C172.735 40.9869 169.78 50.0283 167.87 59.531C165.975 50.0283 163.012 40.9869 158.981 32.7926ZM165.514 245.6H130.969V128.012H165.514V245.6ZM130.961 7.18659C151.719 20.3209 165.417 50.6489 165.417 84.4073V122.904H130.961V7.18659ZM126.047 245.6H91.5026V128.012H126.047V245.6ZM86.5561 100.402C83.4959 92.979 79.0999 86.1435 73.4248 80.2641C67.7497 74.4014 61.1679 69.8304 53.995 66.6768H86.5561V100.41V100.402ZM86.5561 183.997C73.2629 182.814 60.9088 176.926 51.372 167.029C41.2361 156.537 35.472 142.749 34.8648 128.021H86.5561V183.997ZM12.5286 184.24V128.012H29.9183C30.5417 144.116 36.8078 159.179 47.8827 170.636C53.5417 176.515 60.1397 181.086 67.3125 184.24H12.5367H12.5286ZM12.5286 66.6684H29.8049C44.9602 66.6684 59.2168 72.7743 69.9355 83.8873C80.0714 94.3797 85.8356 108.16 86.4428 122.896H12.5286V66.6684ZM288.675 189.348H362.483V245.433H288.675V189.348ZM288.675 128.163H362.483V184.248H288.675V128.163ZM879.996 490.305V428.785H801.03V367.777H717.361V490.129H682.816V428.785H598.928V551.833H525.103V429.464H446.372V367.944H367.406V306.936H288.675V250.515H367.406V123.055H288.675V61.5439H209.709V0.543945H126.047V122.896H91.5026V61.5523H7.60639V189.364H86.5642V250.708H170.46V128.012H204.786V312.052H283.744V429.296H249.2V367.953H165.303V490.489H91.5026V429.481H7.83307V551.833H-26.7115V490.489H-110.6V618.285H-31.6418V679.645H52.2463V556.941H86.5723V740.989H125.618V863.341H204.576V924.685H288.464V801.989H322.79V986.029H406.686V924.501H485.417V801.989H564.602V679.285H598.928V863.333H682.816V801.805H761.547V674.336H682.816V617.941H761.774V495.236H796.1V679.285H879.996V617.756H958.727V490.296H879.996V490.305Z" fill="white"/>
<path d="M165.523 128.013H130.979V245.601H165.523V128.013Z" fill="#C4AD81"/>
</g>
<defs>
<clipPath id="clip0_103_2214">
<rect width="243.599" height="341.38" fill="white" transform="translate(0 0.543945)"/>
</clipPath>
</defs>
</svg>
